<mxfile host="Electron" modified="2024-02-25T10:54:18.365Z" agent="Mozilla/5.0 (Windows NT 10.0; Win64; x64) AppleWebKit/537.36 (KHTML, like Gecko) draw.io/22.1.2 Chrome/114.0.5735.289 Electron/25.9.4 Safari/537.36" etag="MwOPGX_oeE_eDRcipgav" version="22.1.2" type="device">
  <diagram name="Страница — 1" id="j0uL68WOhldkzWqXgEKn">
    <mxGraphModel dx="655" dy="551" grid="1" gridSize="10" guides="1" tooltips="1" connect="1" arrows="1" fold="1" page="1" pageScale="1" pageWidth="827" pageHeight="1169" math="0" shadow="0">
      <root>
        <mxCell id="0" />
        <mxCell id="1" parent="0" />
        <mxCell id="6GgiLEc-BA4BHd9ayZXc-7" value="" style="edgeStyle=none;shape=connector;rounded=0;orthogonalLoop=1;jettySize=auto;html=1;labelBackgroundColor=default;strokeColor=default;strokeWidth=2;align=center;verticalAlign=middle;fontFamily=Helvetica;fontSize=11;fontColor=default;endArrow=none;" edge="1" parent="1" source="6GgiLEc-BA4BHd9ayZXc-1" target="6GgiLEc-BA4BHd9ayZXc-2">
          <mxGeometry relative="1" as="geometry" />
        </mxCell>
        <mxCell id="6GgiLEc-BA4BHd9ayZXc-1" value="#include &amp;lt;iostream&amp;gt;&lt;br&gt;using namespace std;" style="ellipse;whiteSpace=wrap;html=1;fontFamily=Helvetica;fontSize=11;fontColor=default;" vertex="1" parent="1">
          <mxGeometry x="379" y="10" width="121" height="70" as="geometry" />
        </mxCell>
        <mxCell id="6GgiLEc-BA4BHd9ayZXc-2" value="int m[8][8];&lt;br&gt;int z;" style="rounded=0;whiteSpace=wrap;html=1;" vertex="1" parent="1">
          <mxGeometry x="370" y="110" width="140" height="60" as="geometry" />
        </mxCell>
        <mxCell id="6GgiLEc-BA4BHd9ayZXc-8" value="void output()&lt;br&gt;{" style="shape=process;whiteSpace=wrap;html=1;backgroundOutline=1;fontFamily=Helvetica;fontSize=11;fontColor=default;" vertex="1" parent="1">
          <mxGeometry x="380" y="230" width="120" height="40" as="geometry" />
        </mxCell>
        <mxCell id="6GgiLEc-BA4BHd9ayZXc-10" value="" style="edgeStyle=none;shape=connector;rounded=0;orthogonalLoop=1;jettySize=auto;html=1;labelBackgroundColor=default;strokeColor=default;strokeWidth=2;align=center;verticalAlign=middle;fontFamily=Helvetica;fontSize=11;fontColor=default;endArrow=none;" edge="1" parent="1" source="6GgiLEc-BA4BHd9ayZXc-9" target="6GgiLEc-BA4BHd9ayZXc-8">
          <mxGeometry relative="1" as="geometry" />
        </mxCell>
        <mxCell id="6GgiLEc-BA4BHd9ayZXc-30" style="edgeStyle=none;shape=connector;rounded=0;orthogonalLoop=1;jettySize=auto;html=1;labelBackgroundColor=default;strokeColor=default;strokeWidth=2;align=center;verticalAlign=middle;fontFamily=Helvetica;fontSize=11;fontColor=default;endArrow=none;" edge="1" parent="1" source="6GgiLEc-BA4BHd9ayZXc-9">
          <mxGeometry relative="1" as="geometry">
            <mxPoint x="630" y="320" as="targetPoint" />
          </mxGeometry>
        </mxCell>
        <mxCell id="6GgiLEc-BA4BHd9ayZXc-9" value="for (int i = 0; i&amp;lt;8; i++)&lt;br&gt;{" style="shape=hexagon;perimeter=hexagonPerimeter2;whiteSpace=wrap;html=1;fixedSize=1;fontFamily=Helvetica;fontSize=11;fontColor=default;" vertex="1" parent="1">
          <mxGeometry x="360" y="300" width="160" height="40" as="geometry" />
        </mxCell>
        <mxCell id="6GgiLEc-BA4BHd9ayZXc-12" value="" style="edgeStyle=none;shape=connector;rounded=0;orthogonalLoop=1;jettySize=auto;html=1;labelBackgroundColor=default;strokeColor=default;strokeWidth=2;align=center;verticalAlign=middle;fontFamily=Helvetica;fontSize=11;fontColor=default;endArrow=none;" edge="1" parent="1" source="6GgiLEc-BA4BHd9ayZXc-11" target="6GgiLEc-BA4BHd9ayZXc-9">
          <mxGeometry relative="1" as="geometry" />
        </mxCell>
        <mxCell id="6GgiLEc-BA4BHd9ayZXc-19" style="edgeStyle=none;shape=connector;rounded=0;orthogonalLoop=1;jettySize=auto;html=1;labelBackgroundColor=default;strokeColor=default;strokeWidth=2;align=center;verticalAlign=middle;fontFamily=Helvetica;fontSize=11;fontColor=default;endArrow=none;" edge="1" parent="1" source="6GgiLEc-BA4BHd9ayZXc-11">
          <mxGeometry relative="1" as="geometry">
            <mxPoint x="550" y="390" as="targetPoint" />
          </mxGeometry>
        </mxCell>
        <mxCell id="6GgiLEc-BA4BHd9ayZXc-11" value="for (int j=0; j&amp;lt;8; j++)&lt;br&gt;{" style="shape=hexagon;perimeter=hexagonPerimeter2;whiteSpace=wrap;html=1;fixedSize=1;fontFamily=Helvetica;fontSize=11;fontColor=default;" vertex="1" parent="1">
          <mxGeometry x="379" y="370" width="120" height="40" as="geometry" />
        </mxCell>
        <mxCell id="6GgiLEc-BA4BHd9ayZXc-14" value="" style="edgeStyle=none;shape=connector;rounded=0;orthogonalLoop=1;jettySize=auto;html=1;labelBackgroundColor=default;strokeColor=default;strokeWidth=2;align=center;verticalAlign=middle;fontFamily=Helvetica;fontSize=11;fontColor=default;endArrow=none;" edge="1" parent="1" source="6GgiLEc-BA4BHd9ayZXc-13" target="6GgiLEc-BA4BHd9ayZXc-11">
          <mxGeometry relative="1" as="geometry" />
        </mxCell>
        <mxCell id="6GgiLEc-BA4BHd9ayZXc-17" style="edgeStyle=none;shape=connector;rounded=0;orthogonalLoop=1;jettySize=auto;html=1;labelBackgroundColor=default;strokeColor=default;strokeWidth=2;align=center;verticalAlign=middle;fontFamily=Helvetica;fontSize=11;fontColor=default;endArrow=none;" edge="1" parent="1" source="6GgiLEc-BA4BHd9ayZXc-13">
          <mxGeometry relative="1" as="geometry">
            <mxPoint x="439.5" y="500" as="targetPoint" />
          </mxGeometry>
        </mxCell>
        <mxCell id="6GgiLEc-BA4BHd9ayZXc-13" value="cout&amp;lt;&amp;lt;m[i][j]&amp;lt;&amp;lt;&#39; &#39;;}" style="shape=parallelogram;perimeter=parallelogramPerimeter;whiteSpace=wrap;html=1;fixedSize=1;fontFamily=Helvetica;fontSize=11;fontColor=default;" vertex="1" parent="1">
          <mxGeometry x="379.5" y="440" width="120" height="40" as="geometry" />
        </mxCell>
        <mxCell id="6GgiLEc-BA4BHd9ayZXc-15" value="" style="strokeWidth=2;html=1;shape=mxgraph.flowchart.annotation_1;align=left;pointerEvents=1;fontFamily=Helvetica;fontSize=11;fontColor=default;" vertex="1" parent="1">
          <mxGeometry x="360" y="390" width="20" height="110" as="geometry" />
        </mxCell>
        <mxCell id="6GgiLEc-BA4BHd9ayZXc-16" value="" style="endArrow=none;html=1;rounded=0;labelBackgroundColor=default;strokeColor=default;strokeWidth=2;align=center;verticalAlign=middle;fontFamily=Helvetica;fontSize=11;fontColor=default;shape=connector;" edge="1" parent="1">
          <mxGeometry width="50" height="50" relative="1" as="geometry">
            <mxPoint x="379" y="500" as="sourcePoint" />
            <mxPoint x="440" y="500" as="targetPoint" />
          </mxGeometry>
        </mxCell>
        <mxCell id="6GgiLEc-BA4BHd9ayZXc-20" style="edgeStyle=none;shape=connector;rounded=0;orthogonalLoop=1;jettySize=auto;html=1;labelBackgroundColor=default;strokeColor=default;strokeWidth=2;align=center;verticalAlign=middle;fontFamily=Helvetica;fontSize=11;fontColor=default;endArrow=none;" edge="1" parent="1" source="6GgiLEc-BA4BHd9ayZXc-18">
          <mxGeometry relative="1" as="geometry">
            <mxPoint x="550" y="390" as="targetPoint" />
          </mxGeometry>
        </mxCell>
        <mxCell id="6GgiLEc-BA4BHd9ayZXc-21" style="edgeStyle=none;shape=connector;rounded=0;orthogonalLoop=1;jettySize=auto;html=1;labelBackgroundColor=default;strokeColor=default;strokeWidth=2;align=center;verticalAlign=middle;fontFamily=Helvetica;fontSize=11;fontColor=default;endArrow=none;" edge="1" parent="1" source="6GgiLEc-BA4BHd9ayZXc-18">
          <mxGeometry relative="1" as="geometry">
            <mxPoint x="550" y="520" as="targetPoint" />
          </mxGeometry>
        </mxCell>
        <mxCell id="6GgiLEc-BA4BHd9ayZXc-18" value="cout&amp;lt;&amp;lt;endl;}" style="shape=parallelogram;perimeter=parallelogramPerimeter;whiteSpace=wrap;html=1;fixedSize=1;fontFamily=Helvetica;fontSize=11;fontColor=default;" vertex="1" parent="1">
          <mxGeometry x="500" y="440" width="100" height="20" as="geometry" />
        </mxCell>
        <mxCell id="6GgiLEc-BA4BHd9ayZXc-24" value="" style="strokeWidth=2;html=1;shape=mxgraph.flowchart.annotation_1;align=left;pointerEvents=1;fontFamily=Helvetica;fontSize=11;fontColor=default;" vertex="1" parent="1">
          <mxGeometry x="340" y="320" width="20" height="200" as="geometry" />
        </mxCell>
        <mxCell id="6GgiLEc-BA4BHd9ayZXc-25" value="" style="endArrow=none;html=1;rounded=0;labelBackgroundColor=default;strokeColor=default;strokeWidth=2;align=center;verticalAlign=middle;fontFamily=Helvetica;fontSize=11;fontColor=default;shape=connector;" edge="1" parent="1">
          <mxGeometry width="50" height="50" relative="1" as="geometry">
            <mxPoint x="360" y="520" as="sourcePoint" />
            <mxPoint x="550" y="520" as="targetPoint" />
          </mxGeometry>
        </mxCell>
        <mxCell id="6GgiLEc-BA4BHd9ayZXc-28" value="" style="edgeStyle=none;shape=connector;rounded=0;orthogonalLoop=1;jettySize=auto;html=1;labelBackgroundColor=default;strokeColor=default;strokeWidth=2;align=center;verticalAlign=middle;fontFamily=Helvetica;fontSize=11;fontColor=default;endArrow=none;" edge="1" parent="1" source="6GgiLEc-BA4BHd9ayZXc-26" target="6GgiLEc-BA4BHd9ayZXc-27">
          <mxGeometry relative="1" as="geometry" />
        </mxCell>
        <mxCell id="6GgiLEc-BA4BHd9ayZXc-29" style="edgeStyle=none;shape=connector;rounded=0;orthogonalLoop=1;jettySize=auto;html=1;labelBackgroundColor=default;strokeColor=default;strokeWidth=2;align=center;verticalAlign=middle;fontFamily=Helvetica;fontSize=11;fontColor=default;endArrow=none;" edge="1" parent="1" source="6GgiLEc-BA4BHd9ayZXc-26">
          <mxGeometry relative="1" as="geometry">
            <mxPoint x="630" y="320" as="targetPoint" />
          </mxGeometry>
        </mxCell>
        <mxCell id="6GgiLEc-BA4BHd9ayZXc-26" value="cout&amp;lt;&amp;lt;endl;" style="shape=parallelogram;perimeter=parallelogramPerimeter;whiteSpace=wrap;html=1;fixedSize=1;fontFamily=Helvetica;fontSize=11;fontColor=default;" vertex="1" parent="1">
          <mxGeometry x="580" y="340" width="100" height="20" as="geometry" />
        </mxCell>
        <mxCell id="6GgiLEc-BA4BHd9ayZXc-27" value="}" style="ellipse;whiteSpace=wrap;html=1;fontFamily=Helvetica;fontSize=11;fontColor=default;" vertex="1" parent="1">
          <mxGeometry x="590" y="380" width="80" height="20" as="geometry" />
        </mxCell>
        <mxCell id="6GgiLEc-BA4BHd9ayZXc-31" value="int ifqueen(int y, int x)&lt;br&gt;{" style="shape=process;whiteSpace=wrap;html=1;backgroundOutline=1;fontFamily=Helvetica;fontSize=11;fontColor=default;" vertex="1" parent="1">
          <mxGeometry x="359" y="560" width="160" height="40" as="geometry" />
        </mxCell>
        <mxCell id="6GgiLEc-BA4BHd9ayZXc-33" value="" style="edgeStyle=none;shape=connector;rounded=0;orthogonalLoop=1;jettySize=auto;html=1;labelBackgroundColor=default;strokeColor=default;strokeWidth=2;align=center;verticalAlign=middle;fontFamily=Helvetica;fontSize=11;fontColor=default;endArrow=none;" edge="1" parent="1" source="6GgiLEc-BA4BHd9ayZXc-32" target="6GgiLEc-BA4BHd9ayZXc-31">
          <mxGeometry relative="1" as="geometry" />
        </mxCell>
        <mxCell id="6GgiLEc-BA4BHd9ayZXc-32" value="for (int i=0; i&amp;lt;y; ++i)&lt;br&gt;{" style="shape=hexagon;perimeter=hexagonPerimeter2;whiteSpace=wrap;html=1;fixedSize=1;fontFamily=Helvetica;fontSize=11;fontColor=default;" vertex="1" parent="1">
          <mxGeometry x="379.5" y="630" width="120" height="40" as="geometry" />
        </mxCell>
        <mxCell id="6GgiLEc-BA4BHd9ayZXc-35" value="" style="edgeStyle=none;shape=connector;rounded=0;orthogonalLoop=1;jettySize=auto;html=1;labelBackgroundColor=default;strokeColor=default;strokeWidth=2;align=center;verticalAlign=middle;fontFamily=Helvetica;fontSize=11;fontColor=default;endArrow=none;" edge="1" parent="1" source="6GgiLEc-BA4BHd9ayZXc-34" target="6GgiLEc-BA4BHd9ayZXc-32">
          <mxGeometry relative="1" as="geometry" />
        </mxCell>
        <mxCell id="6GgiLEc-BA4BHd9ayZXc-38" style="edgeStyle=none;shape=connector;rounded=0;orthogonalLoop=1;jettySize=auto;html=1;labelBackgroundColor=default;strokeColor=default;strokeWidth=2;align=center;verticalAlign=middle;fontFamily=Helvetica;fontSize=11;fontColor=default;endArrow=none;" edge="1" parent="1" source="6GgiLEc-BA4BHd9ayZXc-34">
          <mxGeometry relative="1" as="geometry">
            <mxPoint x="370" y="710" as="targetPoint" />
          </mxGeometry>
        </mxCell>
        <mxCell id="6GgiLEc-BA4BHd9ayZXc-46" style="edgeStyle=none;shape=connector;rounded=0;orthogonalLoop=1;jettySize=auto;html=1;labelBackgroundColor=default;strokeColor=default;strokeWidth=2;align=center;verticalAlign=middle;fontFamily=Helvetica;fontSize=11;fontColor=default;endArrow=none;" edge="1" parent="1" source="6GgiLEc-BA4BHd9ayZXc-34">
          <mxGeometry relative="1" as="geometry">
            <mxPoint x="510" y="710" as="targetPoint" />
          </mxGeometry>
        </mxCell>
        <mxCell id="6GgiLEc-BA4BHd9ayZXc-34" value="if (m[i][x])" style="rhombus;whiteSpace=wrap;html=1;fontFamily=Helvetica;fontSize=11;fontColor=default;" vertex="1" parent="1">
          <mxGeometry x="400" y="690" width="80" height="40" as="geometry" />
        </mxCell>
        <mxCell id="6GgiLEc-BA4BHd9ayZXc-37" style="edgeStyle=none;shape=connector;rounded=0;orthogonalLoop=1;jettySize=auto;html=1;labelBackgroundColor=default;strokeColor=default;strokeWidth=2;align=center;verticalAlign=middle;fontFamily=Helvetica;fontSize=11;fontColor=default;endArrow=none;" edge="1" parent="1" source="6GgiLEc-BA4BHd9ayZXc-36">
          <mxGeometry relative="1" as="geometry">
            <mxPoint x="370" y="710" as="targetPoint" />
          </mxGeometry>
        </mxCell>
        <mxCell id="6GgiLEc-BA4BHd9ayZXc-43" style="edgeStyle=none;shape=connector;rounded=0;orthogonalLoop=1;jettySize=auto;html=1;labelBackgroundColor=default;strokeColor=default;strokeWidth=2;align=center;verticalAlign=middle;fontFamily=Helvetica;fontSize=11;fontColor=default;endArrow=none;" edge="1" parent="1" source="6GgiLEc-BA4BHd9ayZXc-36">
          <mxGeometry relative="1" as="geometry">
            <mxPoint x="370" y="800" as="targetPoint" />
          </mxGeometry>
        </mxCell>
        <mxCell id="6GgiLEc-BA4BHd9ayZXc-36" value="return 0;}" style="ellipse;whiteSpace=wrap;html=1;fontFamily=Helvetica;fontSize=11;fontColor=default;" vertex="1" parent="1">
          <mxGeometry x="335" y="740" width="70" height="40" as="geometry" />
        </mxCell>
        <mxCell id="6GgiLEc-BA4BHd9ayZXc-44" value="" style="endArrow=none;html=1;rounded=0;labelBackgroundColor=default;strokeColor=default;strokeWidth=2;align=center;verticalAlign=middle;fontFamily=Helvetica;fontSize=11;fontColor=default;shape=connector;" edge="1" parent="1">
          <mxGeometry width="50" height="50" relative="1" as="geometry">
            <mxPoint x="370" y="800" as="sourcePoint" />
            <mxPoint x="510" y="800" as="targetPoint" />
          </mxGeometry>
        </mxCell>
        <mxCell id="6GgiLEc-BA4BHd9ayZXc-45" value="" style="endArrow=none;html=1;rounded=0;labelBackgroundColor=default;strokeColor=default;strokeWidth=2;align=center;verticalAlign=middle;fontFamily=Helvetica;fontSize=11;fontColor=default;shape=connector;" edge="1" parent="1">
          <mxGeometry width="50" height="50" relative="1" as="geometry">
            <mxPoint x="510" y="800" as="sourcePoint" />
            <mxPoint x="510" y="710" as="targetPoint" />
          </mxGeometry>
        </mxCell>
        <mxCell id="6GgiLEc-BA4BHd9ayZXc-47" value="" style="strokeWidth=2;html=1;shape=mxgraph.flowchart.annotation_1;align=left;pointerEvents=1;fontFamily=Helvetica;fontSize=11;fontColor=default;" vertex="1" parent="1">
          <mxGeometry x="320" y="650" width="60" height="170" as="geometry" />
        </mxCell>
        <mxCell id="6GgiLEc-BA4BHd9ayZXc-48" value="" style="endArrow=none;html=1;rounded=0;labelBackgroundColor=default;strokeColor=default;strokeWidth=2;align=center;verticalAlign=middle;fontFamily=Helvetica;fontSize=11;fontColor=default;shape=connector;" edge="1" parent="1">
          <mxGeometry width="50" height="50" relative="1" as="geometry">
            <mxPoint x="440" y="820" as="sourcePoint" />
            <mxPoint x="440" y="800" as="targetPoint" />
          </mxGeometry>
        </mxCell>
        <mxCell id="6GgiLEc-BA4BHd9ayZXc-49" value="" style="endArrow=none;html=1;rounded=0;labelBackgroundColor=default;strokeColor=default;strokeWidth=2;align=center;verticalAlign=middle;fontFamily=Helvetica;fontSize=11;fontColor=default;shape=connector;" edge="1" parent="1">
          <mxGeometry width="50" height="50" relative="1" as="geometry">
            <mxPoint x="380" y="820" as="sourcePoint" />
            <mxPoint x="440" y="820" as="targetPoint" />
          </mxGeometry>
        </mxCell>
        <mxCell id="6GgiLEc-BA4BHd9ayZXc-50" value="" style="strokeWidth=2;html=1;shape=mxgraph.flowchart.annotation_1;align=left;pointerEvents=1;fontFamily=Helvetica;fontSize=11;fontColor=default;rotation=-180;" vertex="1" parent="1">
          <mxGeometry x="499" y="650" width="39" height="190" as="geometry" />
        </mxCell>
        <mxCell id="6GgiLEc-BA4BHd9ayZXc-51" value="" style="endArrow=none;html=1;rounded=0;labelBackgroundColor=default;strokeColor=default;strokeWidth=2;align=center;verticalAlign=middle;fontFamily=Helvetica;fontSize=11;fontColor=default;shape=connector;" edge="1" parent="1">
          <mxGeometry width="50" height="50" relative="1" as="geometry">
            <mxPoint x="440" y="840" as="sourcePoint" />
            <mxPoint x="499" y="840" as="targetPoint" />
          </mxGeometry>
        </mxCell>
        <mxCell id="6GgiLEc-BA4BHd9ayZXc-85" style="edgeStyle=none;shape=connector;rounded=0;orthogonalLoop=1;jettySize=auto;html=1;labelBackgroundColor=default;strokeColor=default;strokeWidth=2;align=center;verticalAlign=middle;fontFamily=Helvetica;fontSize=11;fontColor=default;endArrow=none;" edge="1" parent="1" source="6GgiLEc-BA4BHd9ayZXc-69">
          <mxGeometry relative="1" as="geometry">
            <mxPoint x="439.5" y="840" as="targetPoint" />
          </mxGeometry>
        </mxCell>
        <mxCell id="6GgiLEc-BA4BHd9ayZXc-69" value="for (int i=y+1; i&amp;lt;8; ++i){" style="shape=hexagon;perimeter=hexagonPerimeter2;whiteSpace=wrap;html=1;fixedSize=1;fontFamily=Helvetica;fontSize=11;fontColor=default;" vertex="1" parent="1">
          <mxGeometry x="379.5" y="870" width="120" height="40" as="geometry" />
        </mxCell>
        <mxCell id="6GgiLEc-BA4BHd9ayZXc-70" value="" style="edgeStyle=none;shape=connector;rounded=0;orthogonalLoop=1;jettySize=auto;html=1;labelBackgroundColor=default;strokeColor=default;strokeWidth=2;align=center;verticalAlign=middle;fontFamily=Helvetica;fontSize=11;fontColor=default;endArrow=none;" edge="1" parent="1" source="6GgiLEc-BA4BHd9ayZXc-73" target="6GgiLEc-BA4BHd9ayZXc-69">
          <mxGeometry relative="1" as="geometry" />
        </mxCell>
        <mxCell id="6GgiLEc-BA4BHd9ayZXc-71" style="edgeStyle=none;shape=connector;rounded=0;orthogonalLoop=1;jettySize=auto;html=1;labelBackgroundColor=default;strokeColor=default;strokeWidth=2;align=center;verticalAlign=middle;fontFamily=Helvetica;fontSize=11;fontColor=default;endArrow=none;" edge="1" parent="1" source="6GgiLEc-BA4BHd9ayZXc-73">
          <mxGeometry relative="1" as="geometry">
            <mxPoint x="370" y="950" as="targetPoint" />
          </mxGeometry>
        </mxCell>
        <mxCell id="6GgiLEc-BA4BHd9ayZXc-72" style="edgeStyle=none;shape=connector;rounded=0;orthogonalLoop=1;jettySize=auto;html=1;labelBackgroundColor=default;strokeColor=default;strokeWidth=2;align=center;verticalAlign=middle;fontFamily=Helvetica;fontSize=11;fontColor=default;endArrow=none;" edge="1" parent="1" source="6GgiLEc-BA4BHd9ayZXc-73">
          <mxGeometry relative="1" as="geometry">
            <mxPoint x="510" y="950" as="targetPoint" />
          </mxGeometry>
        </mxCell>
        <mxCell id="6GgiLEc-BA4BHd9ayZXc-73" value="if (m[i][x])" style="rhombus;whiteSpace=wrap;html=1;fontFamily=Helvetica;fontSize=11;fontColor=default;" vertex="1" parent="1">
          <mxGeometry x="400" y="930" width="80" height="40" as="geometry" />
        </mxCell>
        <mxCell id="6GgiLEc-BA4BHd9ayZXc-74" style="edgeStyle=none;shape=connector;rounded=0;orthogonalLoop=1;jettySize=auto;html=1;labelBackgroundColor=default;strokeColor=default;strokeWidth=2;align=center;verticalAlign=middle;fontFamily=Helvetica;fontSize=11;fontColor=default;endArrow=none;" edge="1" parent="1" source="6GgiLEc-BA4BHd9ayZXc-76">
          <mxGeometry relative="1" as="geometry">
            <mxPoint x="370" y="950" as="targetPoint" />
          </mxGeometry>
        </mxCell>
        <mxCell id="6GgiLEc-BA4BHd9ayZXc-75" style="edgeStyle=none;shape=connector;rounded=0;orthogonalLoop=1;jettySize=auto;html=1;labelBackgroundColor=default;strokeColor=default;strokeWidth=2;align=center;verticalAlign=middle;fontFamily=Helvetica;fontSize=11;fontColor=default;endArrow=none;" edge="1" parent="1" source="6GgiLEc-BA4BHd9ayZXc-76">
          <mxGeometry relative="1" as="geometry">
            <mxPoint x="370" y="1040" as="targetPoint" />
          </mxGeometry>
        </mxCell>
        <mxCell id="6GgiLEc-BA4BHd9ayZXc-76" value="return 0;}" style="ellipse;whiteSpace=wrap;html=1;fontFamily=Helvetica;fontSize=11;fontColor=default;" vertex="1" parent="1">
          <mxGeometry x="335" y="980" width="70" height="40" as="geometry" />
        </mxCell>
        <mxCell id="6GgiLEc-BA4BHd9ayZXc-77" value="" style="endArrow=none;html=1;rounded=0;labelBackgroundColor=default;strokeColor=default;strokeWidth=2;align=center;verticalAlign=middle;fontFamily=Helvetica;fontSize=11;fontColor=default;shape=connector;" edge="1" parent="1">
          <mxGeometry width="50" height="50" relative="1" as="geometry">
            <mxPoint x="370" y="1040" as="sourcePoint" />
            <mxPoint x="510" y="1040" as="targetPoint" />
          </mxGeometry>
        </mxCell>
        <mxCell id="6GgiLEc-BA4BHd9ayZXc-78" value="" style="endArrow=none;html=1;rounded=0;labelBackgroundColor=default;strokeColor=default;strokeWidth=2;align=center;verticalAlign=middle;fontFamily=Helvetica;fontSize=11;fontColor=default;shape=connector;" edge="1" parent="1">
          <mxGeometry width="50" height="50" relative="1" as="geometry">
            <mxPoint x="510" y="1040" as="sourcePoint" />
            <mxPoint x="510" y="950" as="targetPoint" />
          </mxGeometry>
        </mxCell>
        <mxCell id="6GgiLEc-BA4BHd9ayZXc-79" value="" style="strokeWidth=2;html=1;shape=mxgraph.flowchart.annotation_1;align=left;pointerEvents=1;fontFamily=Helvetica;fontSize=11;fontColor=default;" vertex="1" parent="1">
          <mxGeometry x="320" y="890" width="60" height="170" as="geometry" />
        </mxCell>
        <mxCell id="6GgiLEc-BA4BHd9ayZXc-80" value="" style="endArrow=none;html=1;rounded=0;labelBackgroundColor=default;strokeColor=default;strokeWidth=2;align=center;verticalAlign=middle;fontFamily=Helvetica;fontSize=11;fontColor=default;shape=connector;" edge="1" parent="1">
          <mxGeometry width="50" height="50" relative="1" as="geometry">
            <mxPoint x="440" y="1060" as="sourcePoint" />
            <mxPoint x="440" y="1040" as="targetPoint" />
          </mxGeometry>
        </mxCell>
        <mxCell id="6GgiLEc-BA4BHd9ayZXc-81" value="" style="endArrow=none;html=1;rounded=0;labelBackgroundColor=default;strokeColor=default;strokeWidth=2;align=center;verticalAlign=middle;fontFamily=Helvetica;fontSize=11;fontColor=default;shape=connector;" edge="1" parent="1">
          <mxGeometry width="50" height="50" relative="1" as="geometry">
            <mxPoint x="380" y="1060" as="sourcePoint" />
            <mxPoint x="440" y="1060" as="targetPoint" />
          </mxGeometry>
        </mxCell>
        <mxCell id="6GgiLEc-BA4BHd9ayZXc-82" value="" style="strokeWidth=2;html=1;shape=mxgraph.flowchart.annotation_1;align=left;pointerEvents=1;fontFamily=Helvetica;fontSize=11;fontColor=default;rotation=-180;" vertex="1" parent="1">
          <mxGeometry x="499" y="890" width="39" height="190" as="geometry" />
        </mxCell>
        <mxCell id="6GgiLEc-BA4BHd9ayZXc-83" value="" style="endArrow=none;html=1;rounded=0;labelBackgroundColor=default;strokeColor=default;strokeWidth=2;align=center;verticalAlign=middle;fontFamily=Helvetica;fontSize=11;fontColor=default;shape=connector;" edge="1" parent="1">
          <mxGeometry width="50" height="50" relative="1" as="geometry">
            <mxPoint x="440" y="1080" as="sourcePoint" />
            <mxPoint x="499" y="1080" as="targetPoint" />
          </mxGeometry>
        </mxCell>
        <mxCell id="6GgiLEc-BA4BHd9ayZXc-117" style="edgeStyle=none;shape=connector;rounded=0;orthogonalLoop=1;jettySize=auto;html=1;labelBackgroundColor=default;strokeColor=default;strokeWidth=2;align=center;verticalAlign=middle;fontFamily=Helvetica;fontSize=11;fontColor=default;endArrow=none;" edge="1" parent="1" source="6GgiLEc-BA4BHd9ayZXc-86">
          <mxGeometry relative="1" as="geometry">
            <mxPoint x="439.5" y="1080" as="targetPoint" />
          </mxGeometry>
        </mxCell>
        <mxCell id="6GgiLEc-BA4BHd9ayZXc-86" value="for (int i=1; (i&amp;lt;=y)&amp;amp;&amp;amp;(x-i&amp;gt;=0); ++i){" style="shape=hexagon;perimeter=hexagonPerimeter2;whiteSpace=wrap;html=1;fixedSize=1;fontFamily=Helvetica;fontSize=11;fontColor=default;" vertex="1" parent="1">
          <mxGeometry x="360" y="1090" width="160" height="60" as="geometry" />
        </mxCell>
        <mxCell id="6GgiLEc-BA4BHd9ayZXc-87" value="" style="edgeStyle=none;shape=connector;rounded=0;orthogonalLoop=1;jettySize=auto;html=1;labelBackgroundColor=default;strokeColor=default;strokeWidth=2;align=center;verticalAlign=middle;fontFamily=Helvetica;fontSize=11;fontColor=default;endArrow=none;" edge="1" parent="1" source="6GgiLEc-BA4BHd9ayZXc-90" target="6GgiLEc-BA4BHd9ayZXc-86">
          <mxGeometry relative="1" as="geometry" />
        </mxCell>
        <mxCell id="6GgiLEc-BA4BHd9ayZXc-88" style="edgeStyle=none;shape=connector;rounded=0;orthogonalLoop=1;jettySize=auto;html=1;labelBackgroundColor=default;strokeColor=default;strokeWidth=2;align=center;verticalAlign=middle;fontFamily=Helvetica;fontSize=11;fontColor=default;endArrow=none;" edge="1" parent="1" source="6GgiLEc-BA4BHd9ayZXc-90">
          <mxGeometry relative="1" as="geometry">
            <mxPoint x="370" y="1180" as="targetPoint" />
          </mxGeometry>
        </mxCell>
        <mxCell id="6GgiLEc-BA4BHd9ayZXc-89" style="edgeStyle=none;shape=connector;rounded=0;orthogonalLoop=1;jettySize=auto;html=1;labelBackgroundColor=default;strokeColor=default;strokeWidth=2;align=center;verticalAlign=middle;fontFamily=Helvetica;fontSize=11;fontColor=default;endArrow=none;" edge="1" parent="1" source="6GgiLEc-BA4BHd9ayZXc-90">
          <mxGeometry relative="1" as="geometry">
            <mxPoint x="510" y="1180" as="targetPoint" />
          </mxGeometry>
        </mxCell>
        <mxCell id="6GgiLEc-BA4BHd9ayZXc-90" value="if (m[y-i][x-i])" style="rhombus;whiteSpace=wrap;html=1;fontFamily=Helvetica;fontSize=11;fontColor=default;" vertex="1" parent="1">
          <mxGeometry x="400" y="1160" width="80" height="40" as="geometry" />
        </mxCell>
        <mxCell id="6GgiLEc-BA4BHd9ayZXc-91" style="edgeStyle=none;shape=connector;rounded=0;orthogonalLoop=1;jettySize=auto;html=1;labelBackgroundColor=default;strokeColor=default;strokeWidth=2;align=center;verticalAlign=middle;fontFamily=Helvetica;fontSize=11;fontColor=default;endArrow=none;" edge="1" parent="1" source="6GgiLEc-BA4BHd9ayZXc-93">
          <mxGeometry relative="1" as="geometry">
            <mxPoint x="370" y="1180" as="targetPoint" />
          </mxGeometry>
        </mxCell>
        <mxCell id="6GgiLEc-BA4BHd9ayZXc-92" style="edgeStyle=none;shape=connector;rounded=0;orthogonalLoop=1;jettySize=auto;html=1;labelBackgroundColor=default;strokeColor=default;strokeWidth=2;align=center;verticalAlign=middle;fontFamily=Helvetica;fontSize=11;fontColor=default;endArrow=none;" edge="1" parent="1" source="6GgiLEc-BA4BHd9ayZXc-93">
          <mxGeometry relative="1" as="geometry">
            <mxPoint x="370" y="1270" as="targetPoint" />
          </mxGeometry>
        </mxCell>
        <mxCell id="6GgiLEc-BA4BHd9ayZXc-93" value="return 0;}" style="ellipse;whiteSpace=wrap;html=1;fontFamily=Helvetica;fontSize=11;fontColor=default;" vertex="1" parent="1">
          <mxGeometry x="335" y="1210" width="70" height="40" as="geometry" />
        </mxCell>
        <mxCell id="6GgiLEc-BA4BHd9ayZXc-94" value="" style="endArrow=none;html=1;rounded=0;labelBackgroundColor=default;strokeColor=default;strokeWidth=2;align=center;verticalAlign=middle;fontFamily=Helvetica;fontSize=11;fontColor=default;shape=connector;" edge="1" parent="1">
          <mxGeometry width="50" height="50" relative="1" as="geometry">
            <mxPoint x="370" y="1270" as="sourcePoint" />
            <mxPoint x="510" y="1270" as="targetPoint" />
          </mxGeometry>
        </mxCell>
        <mxCell id="6GgiLEc-BA4BHd9ayZXc-95" value="" style="endArrow=none;html=1;rounded=0;labelBackgroundColor=default;strokeColor=default;strokeWidth=2;align=center;verticalAlign=middle;fontFamily=Helvetica;fontSize=11;fontColor=default;shape=connector;" edge="1" parent="1">
          <mxGeometry width="50" height="50" relative="1" as="geometry">
            <mxPoint x="510" y="1270" as="sourcePoint" />
            <mxPoint x="510" y="1180" as="targetPoint" />
          </mxGeometry>
        </mxCell>
        <mxCell id="6GgiLEc-BA4BHd9ayZXc-96" value="" style="strokeWidth=2;html=1;shape=mxgraph.flowchart.annotation_1;align=left;pointerEvents=1;fontFamily=Helvetica;fontSize=11;fontColor=default;" vertex="1" parent="1">
          <mxGeometry x="320" y="1120" width="40" height="170" as="geometry" />
        </mxCell>
        <mxCell id="6GgiLEc-BA4BHd9ayZXc-97" value="" style="endArrow=none;html=1;rounded=0;labelBackgroundColor=default;strokeColor=default;strokeWidth=2;align=center;verticalAlign=middle;fontFamily=Helvetica;fontSize=11;fontColor=default;shape=connector;" edge="1" parent="1">
          <mxGeometry width="50" height="50" relative="1" as="geometry">
            <mxPoint x="440" y="1290" as="sourcePoint" />
            <mxPoint x="440" y="1270" as="targetPoint" />
          </mxGeometry>
        </mxCell>
        <mxCell id="6GgiLEc-BA4BHd9ayZXc-98" value="" style="endArrow=none;html=1;rounded=0;labelBackgroundColor=default;strokeColor=default;strokeWidth=2;align=center;verticalAlign=middle;fontFamily=Helvetica;fontSize=11;fontColor=default;shape=connector;exitX=1;exitY=1;exitDx=0;exitDy=0;exitPerimeter=0;" edge="1" parent="1" source="6GgiLEc-BA4BHd9ayZXc-96">
          <mxGeometry width="50" height="50" relative="1" as="geometry">
            <mxPoint x="380" y="1290" as="sourcePoint" />
            <mxPoint x="440" y="1290" as="targetPoint" />
          </mxGeometry>
        </mxCell>
        <mxCell id="6GgiLEc-BA4BHd9ayZXc-99" value="" style="strokeWidth=2;html=1;shape=mxgraph.flowchart.annotation_1;align=left;pointerEvents=1;fontFamily=Helvetica;fontSize=11;fontColor=default;rotation=-180;" vertex="1" parent="1">
          <mxGeometry x="519" y="1120" width="39" height="190" as="geometry" />
        </mxCell>
        <mxCell id="6GgiLEc-BA4BHd9ayZXc-100" value="" style="endArrow=none;html=1;rounded=0;labelBackgroundColor=default;strokeColor=default;strokeWidth=2;align=center;verticalAlign=middle;fontFamily=Helvetica;fontSize=11;fontColor=default;shape=connector;entryX=1;entryY=0;entryDx=0;entryDy=0;entryPerimeter=0;" edge="1" parent="1" target="6GgiLEc-BA4BHd9ayZXc-99">
          <mxGeometry width="50" height="50" relative="1" as="geometry">
            <mxPoint x="440" y="1310" as="sourcePoint" />
            <mxPoint x="499" y="1310" as="targetPoint" />
          </mxGeometry>
        </mxCell>
        <mxCell id="6GgiLEc-BA4BHd9ayZXc-116" style="edgeStyle=none;shape=connector;rounded=0;orthogonalLoop=1;jettySize=auto;html=1;labelBackgroundColor=default;strokeColor=default;strokeWidth=2;align=center;verticalAlign=middle;fontFamily=Helvetica;fontSize=11;fontColor=default;endArrow=none;" edge="1" parent="1" source="6GgiLEc-BA4BHd9ayZXc-101">
          <mxGeometry relative="1" as="geometry">
            <mxPoint x="439.5" y="1310" as="targetPoint" />
          </mxGeometry>
        </mxCell>
        <mxCell id="6GgiLEc-BA4BHd9ayZXc-101" value="for (int i=1; (i&amp;lt;=y)&amp;amp;&amp;amp;(x+i&amp;lt;8); ++i){" style="shape=hexagon;perimeter=hexagonPerimeter2;whiteSpace=wrap;html=1;fixedSize=1;fontFamily=Helvetica;fontSize=11;fontColor=default;" vertex="1" parent="1">
          <mxGeometry x="379.5" y="1330" width="120" height="60" as="geometry" />
        </mxCell>
        <mxCell id="6GgiLEc-BA4BHd9ayZXc-102" value="" style="edgeStyle=none;shape=connector;rounded=0;orthogonalLoop=1;jettySize=auto;html=1;labelBackgroundColor=default;strokeColor=default;strokeWidth=2;align=center;verticalAlign=middle;fontFamily=Helvetica;fontSize=11;fontColor=default;endArrow=none;" edge="1" parent="1" source="6GgiLEc-BA4BHd9ayZXc-105" target="6GgiLEc-BA4BHd9ayZXc-101">
          <mxGeometry relative="1" as="geometry" />
        </mxCell>
        <mxCell id="6GgiLEc-BA4BHd9ayZXc-103" style="edgeStyle=none;shape=connector;rounded=0;orthogonalLoop=1;jettySize=auto;html=1;labelBackgroundColor=default;strokeColor=default;strokeWidth=2;align=center;verticalAlign=middle;fontFamily=Helvetica;fontSize=11;fontColor=default;endArrow=none;" edge="1" parent="1" source="6GgiLEc-BA4BHd9ayZXc-105">
          <mxGeometry relative="1" as="geometry">
            <mxPoint x="370" y="1420" as="targetPoint" />
          </mxGeometry>
        </mxCell>
        <mxCell id="6GgiLEc-BA4BHd9ayZXc-104" style="edgeStyle=none;shape=connector;rounded=0;orthogonalLoop=1;jettySize=auto;html=1;labelBackgroundColor=default;strokeColor=default;strokeWidth=2;align=center;verticalAlign=middle;fontFamily=Helvetica;fontSize=11;fontColor=default;endArrow=none;" edge="1" parent="1" source="6GgiLEc-BA4BHd9ayZXc-105">
          <mxGeometry relative="1" as="geometry">
            <mxPoint x="510" y="1420" as="targetPoint" />
          </mxGeometry>
        </mxCell>
        <mxCell id="6GgiLEc-BA4BHd9ayZXc-105" value="if (m[y-i][x+i])" style="rhombus;whiteSpace=wrap;html=1;fontFamily=Helvetica;fontSize=11;fontColor=default;" vertex="1" parent="1">
          <mxGeometry x="400" y="1400" width="80" height="40" as="geometry" />
        </mxCell>
        <mxCell id="6GgiLEc-BA4BHd9ayZXc-106" style="edgeStyle=none;shape=connector;rounded=0;orthogonalLoop=1;jettySize=auto;html=1;labelBackgroundColor=default;strokeColor=default;strokeWidth=2;align=center;verticalAlign=middle;fontFamily=Helvetica;fontSize=11;fontColor=default;endArrow=none;" edge="1" parent="1" source="6GgiLEc-BA4BHd9ayZXc-108">
          <mxGeometry relative="1" as="geometry">
            <mxPoint x="370" y="1420" as="targetPoint" />
          </mxGeometry>
        </mxCell>
        <mxCell id="6GgiLEc-BA4BHd9ayZXc-107" style="edgeStyle=none;shape=connector;rounded=0;orthogonalLoop=1;jettySize=auto;html=1;labelBackgroundColor=default;strokeColor=default;strokeWidth=2;align=center;verticalAlign=middle;fontFamily=Helvetica;fontSize=11;fontColor=default;endArrow=none;" edge="1" parent="1" source="6GgiLEc-BA4BHd9ayZXc-108">
          <mxGeometry relative="1" as="geometry">
            <mxPoint x="370" y="1510" as="targetPoint" />
          </mxGeometry>
        </mxCell>
        <mxCell id="6GgiLEc-BA4BHd9ayZXc-108" value="return 0;}" style="ellipse;whiteSpace=wrap;html=1;fontFamily=Helvetica;fontSize=11;fontColor=default;" vertex="1" parent="1">
          <mxGeometry x="335" y="1450" width="70" height="40" as="geometry" />
        </mxCell>
        <mxCell id="6GgiLEc-BA4BHd9ayZXc-109" value="" style="endArrow=none;html=1;rounded=0;labelBackgroundColor=default;strokeColor=default;strokeWidth=2;align=center;verticalAlign=middle;fontFamily=Helvetica;fontSize=11;fontColor=default;shape=connector;" edge="1" parent="1">
          <mxGeometry width="50" height="50" relative="1" as="geometry">
            <mxPoint x="370" y="1510" as="sourcePoint" />
            <mxPoint x="510" y="1510" as="targetPoint" />
          </mxGeometry>
        </mxCell>
        <mxCell id="6GgiLEc-BA4BHd9ayZXc-110" value="" style="endArrow=none;html=1;rounded=0;labelBackgroundColor=default;strokeColor=default;strokeWidth=2;align=center;verticalAlign=middle;fontFamily=Helvetica;fontSize=11;fontColor=default;shape=connector;" edge="1" parent="1">
          <mxGeometry width="50" height="50" relative="1" as="geometry">
            <mxPoint x="510" y="1510" as="sourcePoint" />
            <mxPoint x="510" y="1420" as="targetPoint" />
          </mxGeometry>
        </mxCell>
        <mxCell id="6GgiLEc-BA4BHd9ayZXc-111" value="" style="strokeWidth=2;html=1;shape=mxgraph.flowchart.annotation_1;align=left;pointerEvents=1;fontFamily=Helvetica;fontSize=11;fontColor=default;" vertex="1" parent="1">
          <mxGeometry x="320" y="1360" width="60" height="170" as="geometry" />
        </mxCell>
        <mxCell id="6GgiLEc-BA4BHd9ayZXc-112" value="" style="endArrow=none;html=1;rounded=0;labelBackgroundColor=default;strokeColor=default;strokeWidth=2;align=center;verticalAlign=middle;fontFamily=Helvetica;fontSize=11;fontColor=default;shape=connector;" edge="1" parent="1">
          <mxGeometry width="50" height="50" relative="1" as="geometry">
            <mxPoint x="440" y="1530" as="sourcePoint" />
            <mxPoint x="440" y="1510" as="targetPoint" />
          </mxGeometry>
        </mxCell>
        <mxCell id="6GgiLEc-BA4BHd9ayZXc-113" value="" style="endArrow=none;html=1;rounded=0;labelBackgroundColor=default;strokeColor=default;strokeWidth=2;align=center;verticalAlign=middle;fontFamily=Helvetica;fontSize=11;fontColor=default;shape=connector;" edge="1" parent="1">
          <mxGeometry width="50" height="50" relative="1" as="geometry">
            <mxPoint x="380" y="1530" as="sourcePoint" />
            <mxPoint x="440" y="1530" as="targetPoint" />
          </mxGeometry>
        </mxCell>
        <mxCell id="6GgiLEc-BA4BHd9ayZXc-114" value="" style="strokeWidth=2;html=1;shape=mxgraph.flowchart.annotation_1;align=left;pointerEvents=1;fontFamily=Helvetica;fontSize=11;fontColor=default;rotation=-180;" vertex="1" parent="1">
          <mxGeometry x="499" y="1360" width="39" height="190" as="geometry" />
        </mxCell>
        <mxCell id="6GgiLEc-BA4BHd9ayZXc-115" value="" style="endArrow=none;html=1;rounded=0;labelBackgroundColor=default;strokeColor=default;strokeWidth=2;align=center;verticalAlign=middle;fontFamily=Helvetica;fontSize=11;fontColor=default;shape=connector;" edge="1" parent="1">
          <mxGeometry width="50" height="50" relative="1" as="geometry">
            <mxPoint x="440" y="1550" as="sourcePoint" />
            <mxPoint x="499" y="1550" as="targetPoint" />
          </mxGeometry>
        </mxCell>
        <mxCell id="6GgiLEc-BA4BHd9ayZXc-119" style="edgeStyle=none;shape=connector;rounded=0;orthogonalLoop=1;jettySize=auto;html=1;labelBackgroundColor=default;strokeColor=default;strokeWidth=2;align=center;verticalAlign=middle;fontFamily=Helvetica;fontSize=11;fontColor=default;endArrow=none;" edge="1" parent="1" source="6GgiLEc-BA4BHd9ayZXc-118">
          <mxGeometry relative="1" as="geometry">
            <mxPoint x="439" y="1550" as="targetPoint" />
          </mxGeometry>
        </mxCell>
        <mxCell id="6GgiLEc-BA4BHd9ayZXc-118" value="return 1;&lt;br&gt;}" style="ellipse;whiteSpace=wrap;html=1;fontFamily=Helvetica;fontSize=11;fontColor=default;" vertex="1" parent="1">
          <mxGeometry x="394" y="1580" width="90" height="40" as="geometry" />
        </mxCell>
        <mxCell id="6GgiLEc-BA4BHd9ayZXc-120" value="int placequeen(int y)&lt;br&gt;{" style="shape=process;whiteSpace=wrap;html=1;backgroundOutline=1;fontFamily=Helvetica;fontSize=11;fontColor=default;" vertex="1" parent="1">
          <mxGeometry x="369" y="1660" width="140" height="40" as="geometry" />
        </mxCell>
        <mxCell id="6GgiLEc-BA4BHd9ayZXc-122" value="" style="edgeStyle=none;shape=connector;rounded=0;orthogonalLoop=1;jettySize=auto;html=1;labelBackgroundColor=default;strokeColor=default;strokeWidth=2;align=center;verticalAlign=middle;fontFamily=Helvetica;fontSize=11;fontColor=default;endArrow=none;" edge="1" parent="1" source="6GgiLEc-BA4BHd9ayZXc-121" target="6GgiLEc-BA4BHd9ayZXc-120">
          <mxGeometry relative="1" as="geometry" />
        </mxCell>
        <mxCell id="6GgiLEc-BA4BHd9ayZXc-121" value="cout&amp;lt;&amp;lt;&quot;Вхождение №&quot;&amp;lt;&amp;lt;z&amp;lt;&amp;lt;endl;" style="shape=parallelogram;perimeter=parallelogramPerimeter;whiteSpace=wrap;html=1;fixedSize=1;fontFamily=Helvetica;fontSize=11;fontColor=default;" vertex="1" parent="1">
          <mxGeometry x="338" y="1730" width="202" height="40" as="geometry" />
        </mxCell>
        <mxCell id="6GgiLEc-BA4BHd9ayZXc-124" value="" style="edgeStyle=none;shape=connector;rounded=0;orthogonalLoop=1;jettySize=auto;html=1;labelBackgroundColor=default;strokeColor=default;strokeWidth=2;align=center;verticalAlign=middle;fontFamily=Helvetica;fontSize=11;fontColor=default;endArrow=none;" edge="1" parent="1" source="6GgiLEc-BA4BHd9ayZXc-123" target="6GgiLEc-BA4BHd9ayZXc-121">
          <mxGeometry relative="1" as="geometry" />
        </mxCell>
        <mxCell id="6GgiLEc-BA4BHd9ayZXc-123" value="z++" style="rounded=0;whiteSpace=wrap;html=1;fontFamily=Helvetica;fontSize=11;fontColor=default;" vertex="1" parent="1">
          <mxGeometry x="409.5" y="1800" width="60" height="30" as="geometry" />
        </mxCell>
        <mxCell id="6GgiLEc-BA4BHd9ayZXc-126" value="" style="edgeStyle=none;shape=connector;rounded=0;orthogonalLoop=1;jettySize=auto;html=1;labelBackgroundColor=default;strokeColor=default;strokeWidth=2;align=center;verticalAlign=middle;fontFamily=Helvetica;fontSize=11;fontColor=default;endArrow=none;" edge="1" parent="1" source="6GgiLEc-BA4BHd9ayZXc-125" target="6GgiLEc-BA4BHd9ayZXc-123">
          <mxGeometry relative="1" as="geometry" />
        </mxCell>
        <mxCell id="6GgiLEc-BA4BHd9ayZXc-125" value="output();" style="shape=process;whiteSpace=wrap;html=1;backgroundOutline=1;fontFamily=Helvetica;fontSize=11;fontColor=default;" vertex="1" parent="1">
          <mxGeometry x="399" y="1850" width="80" height="30" as="geometry" />
        </mxCell>
        <mxCell id="6GgiLEc-BA4BHd9ayZXc-129" value="" style="edgeStyle=none;shape=connector;rounded=0;orthogonalLoop=1;jettySize=auto;html=1;labelBackgroundColor=default;strokeColor=default;strokeWidth=2;align=center;verticalAlign=middle;fontFamily=Helvetica;fontSize=11;fontColor=default;endArrow=none;" edge="1" parent="1" source="6GgiLEc-BA4BHd9ayZXc-127" target="6GgiLEc-BA4BHd9ayZXc-125">
          <mxGeometry relative="1" as="geometry" />
        </mxCell>
        <mxCell id="6GgiLEc-BA4BHd9ayZXc-132" style="edgeStyle=none;shape=connector;rounded=0;orthogonalLoop=1;jettySize=auto;html=1;labelBackgroundColor=default;strokeColor=default;strokeWidth=2;align=center;verticalAlign=middle;fontFamily=Helvetica;fontSize=11;fontColor=default;endArrow=none;" edge="1" parent="1" source="6GgiLEc-BA4BHd9ayZXc-127">
          <mxGeometry relative="1" as="geometry">
            <mxPoint x="370" y="1920" as="targetPoint" />
          </mxGeometry>
        </mxCell>
        <mxCell id="6GgiLEc-BA4BHd9ayZXc-127" value="if (y==8)" style="rhombus;whiteSpace=wrap;html=1;fontFamily=Helvetica;fontSize=11;fontColor=default;" vertex="1" parent="1">
          <mxGeometry x="399" y="1900" width="80" height="40" as="geometry" />
        </mxCell>
        <mxCell id="6GgiLEc-BA4BHd9ayZXc-131" style="edgeStyle=none;shape=connector;rounded=0;orthogonalLoop=1;jettySize=auto;html=1;labelBackgroundColor=default;strokeColor=default;strokeWidth=2;align=center;verticalAlign=middle;fontFamily=Helvetica;fontSize=11;fontColor=default;endArrow=none;" edge="1" parent="1" source="6GgiLEc-BA4BHd9ayZXc-130">
          <mxGeometry relative="1" as="geometry">
            <mxPoint x="370" y="1920" as="targetPoint" />
          </mxGeometry>
        </mxCell>
        <mxCell id="6GgiLEc-BA4BHd9ayZXc-133" style="edgeStyle=none;shape=connector;rounded=0;orthogonalLoop=1;jettySize=auto;html=1;labelBackgroundColor=default;strokeColor=default;strokeWidth=2;align=center;verticalAlign=middle;fontFamily=Helvetica;fontSize=11;fontColor=default;endArrow=none;" edge="1" parent="1" source="6GgiLEc-BA4BHd9ayZXc-130">
          <mxGeometry relative="1" as="geometry">
            <mxPoint x="370" y="2020" as="targetPoint" />
          </mxGeometry>
        </mxCell>
        <mxCell id="6GgiLEc-BA4BHd9ayZXc-130" value="{return 1;}" style="ellipse;whiteSpace=wrap;html=1;fontFamily=Helvetica;fontSize=11;fontColor=default;" vertex="1" parent="1">
          <mxGeometry x="330" y="1960" width="80" height="40" as="geometry" />
        </mxCell>
        <mxCell id="6GgiLEc-BA4BHd9ayZXc-135" value="" style="strokeWidth=2;html=1;shape=mxgraph.flowchart.annotation_1;align=left;pointerEvents=1;fontFamily=Helvetica;fontSize=11;fontColor=default;rotation=-180;" vertex="1" parent="1">
          <mxGeometry x="479" y="1920" width="29" height="100" as="geometry" />
        </mxCell>
        <mxCell id="6GgiLEc-BA4BHd9ayZXc-136" value="" style="endArrow=none;html=1;rounded=0;labelBackgroundColor=default;strokeColor=default;strokeWidth=2;align=center;verticalAlign=middle;fontFamily=Helvetica;fontSize=11;fontColor=default;shape=connector;" edge="1" parent="1">
          <mxGeometry width="50" height="50" relative="1" as="geometry">
            <mxPoint x="370" y="2020" as="sourcePoint" />
            <mxPoint x="479" y="2020" as="targetPoint" />
          </mxGeometry>
        </mxCell>
        <mxCell id="6GgiLEc-BA4BHd9ayZXc-138" style="edgeStyle=none;shape=connector;rounded=0;orthogonalLoop=1;jettySize=auto;html=1;labelBackgroundColor=default;strokeColor=default;strokeWidth=2;align=center;verticalAlign=middle;fontFamily=Helvetica;fontSize=11;fontColor=default;endArrow=none;" edge="1" parent="1" source="6GgiLEc-BA4BHd9ayZXc-137">
          <mxGeometry relative="1" as="geometry">
            <mxPoint x="439.5" y="2020" as="targetPoint" />
          </mxGeometry>
        </mxCell>
        <mxCell id="6GgiLEc-BA4BHd9ayZXc-180" style="edgeStyle=none;shape=connector;rounded=0;orthogonalLoop=1;jettySize=auto;html=1;labelBackgroundColor=default;strokeColor=default;strokeWidth=2;align=center;verticalAlign=middle;fontFamily=Helvetica;fontSize=11;fontColor=default;endArrow=none;" edge="1" parent="1" source="6GgiLEc-BA4BHd9ayZXc-137">
          <mxGeometry relative="1" as="geometry">
            <mxPoint x="640" y="2070" as="targetPoint" />
          </mxGeometry>
        </mxCell>
        <mxCell id="6GgiLEc-BA4BHd9ayZXc-137" value="for (int i=0; i&amp;lt;8; i++){" style="shape=hexagon;perimeter=hexagonPerimeter2;whiteSpace=wrap;html=1;fixedSize=1;fontFamily=Helvetica;fontSize=11;fontColor=default;" vertex="1" parent="1">
          <mxGeometry x="382" y="2050" width="115" height="40" as="geometry" />
        </mxCell>
        <mxCell id="6GgiLEc-BA4BHd9ayZXc-140" value="" style="edgeStyle=none;shape=connector;rounded=0;orthogonalLoop=1;jettySize=auto;html=1;labelBackgroundColor=default;strokeColor=default;strokeWidth=2;align=center;verticalAlign=middle;fontFamily=Helvetica;fontSize=11;fontColor=default;endArrow=none;" edge="1" parent="1" source="6GgiLEc-BA4BHd9ayZXc-139" target="6GgiLEc-BA4BHd9ayZXc-137">
          <mxGeometry relative="1" as="geometry" />
        </mxCell>
        <mxCell id="6GgiLEc-BA4BHd9ayZXc-143" style="edgeStyle=none;shape=connector;rounded=0;orthogonalLoop=1;jettySize=auto;html=1;labelBackgroundColor=default;strokeColor=default;strokeWidth=2;align=center;verticalAlign=middle;fontFamily=Helvetica;fontSize=11;fontColor=default;endArrow=none;" edge="1" parent="1" source="6GgiLEc-BA4BHd9ayZXc-139">
          <mxGeometry relative="1" as="geometry">
            <mxPoint x="340" y="2140" as="targetPoint" />
          </mxGeometry>
        </mxCell>
        <mxCell id="6GgiLEc-BA4BHd9ayZXc-139" value="if (ifqueen(y, i) == 1)" style="rhombus;whiteSpace=wrap;html=1;fontFamily=Helvetica;fontSize=11;fontColor=default;" vertex="1" parent="1">
          <mxGeometry x="360" y="2120" width="160" height="40" as="geometry" />
        </mxCell>
        <mxCell id="6GgiLEc-BA4BHd9ayZXc-142" style="edgeStyle=none;shape=connector;rounded=0;orthogonalLoop=1;jettySize=auto;html=1;labelBackgroundColor=default;strokeColor=default;strokeWidth=2;align=center;verticalAlign=middle;fontFamily=Helvetica;fontSize=11;fontColor=default;endArrow=none;" edge="1" parent="1" source="6GgiLEc-BA4BHd9ayZXc-141">
          <mxGeometry relative="1" as="geometry">
            <mxPoint x="339" y="2140" as="targetPoint" />
          </mxGeometry>
        </mxCell>
        <mxCell id="6GgiLEc-BA4BHd9ayZXc-141" value="{m[y][i] = 1;" style="rounded=0;whiteSpace=wrap;html=1;fontFamily=Helvetica;fontSize=11;fontColor=default;" vertex="1" parent="1">
          <mxGeometry x="309" y="2160" width="60" height="30" as="geometry" />
        </mxCell>
        <mxCell id="6GgiLEc-BA4BHd9ayZXc-161" value="" style="edgeStyle=none;shape=connector;rounded=0;orthogonalLoop=1;jettySize=auto;html=1;labelBackgroundColor=default;strokeColor=default;strokeWidth=2;align=center;verticalAlign=middle;fontFamily=Helvetica;fontSize=11;fontColor=default;endArrow=none;" edge="1" parent="1" source="6GgiLEc-BA4BHd9ayZXc-160" target="6GgiLEc-BA4BHd9ayZXc-141">
          <mxGeometry relative="1" as="geometry" />
        </mxCell>
        <mxCell id="6GgiLEc-BA4BHd9ayZXc-164" style="edgeStyle=none;shape=connector;rounded=0;orthogonalLoop=1;jettySize=auto;html=1;labelBackgroundColor=default;strokeColor=default;strokeWidth=2;align=center;verticalAlign=middle;fontFamily=Helvetica;fontSize=11;fontColor=default;endArrow=none;" edge="1" parent="1" source="6GgiLEc-BA4BHd9ayZXc-160">
          <mxGeometry relative="1" as="geometry">
            <mxPoint x="250" y="2240" as="targetPoint" />
          </mxGeometry>
        </mxCell>
        <mxCell id="6GgiLEc-BA4BHd9ayZXc-160" value="if (placequeen(y+1))" style="rhombus;whiteSpace=wrap;html=1;fontFamily=Helvetica;fontSize=11;fontColor=default;" vertex="1" parent="1">
          <mxGeometry x="269" y="2220" width="140" height="40" as="geometry" />
        </mxCell>
        <mxCell id="6GgiLEc-BA4BHd9ayZXc-163" style="edgeStyle=none;shape=connector;rounded=0;orthogonalLoop=1;jettySize=auto;html=1;labelBackgroundColor=default;strokeColor=default;strokeWidth=2;align=center;verticalAlign=middle;fontFamily=Helvetica;fontSize=11;fontColor=default;endArrow=none;" edge="1" parent="1" source="6GgiLEc-BA4BHd9ayZXc-162">
          <mxGeometry relative="1" as="geometry">
            <mxPoint x="250" y="2240" as="targetPoint" />
          </mxGeometry>
        </mxCell>
        <mxCell id="6GgiLEc-BA4BHd9ayZXc-165" style="edgeStyle=none;shape=connector;rounded=0;orthogonalLoop=1;jettySize=auto;html=1;labelBackgroundColor=default;strokeColor=default;strokeWidth=2;align=center;verticalAlign=middle;fontFamily=Helvetica;fontSize=11;fontColor=default;endArrow=none;" edge="1" parent="1" source="6GgiLEc-BA4BHd9ayZXc-162">
          <mxGeometry relative="1" as="geometry">
            <mxPoint x="250" y="2330" as="targetPoint" />
          </mxGeometry>
        </mxCell>
        <mxCell id="6GgiLEc-BA4BHd9ayZXc-162" value="return 1;" style="ellipse;whiteSpace=wrap;html=1;fontFamily=Helvetica;fontSize=11;fontColor=default;" vertex="1" parent="1">
          <mxGeometry x="210" y="2260" width="80" height="30" as="geometry" />
        </mxCell>
        <mxCell id="6GgiLEc-BA4BHd9ayZXc-167" value="" style="strokeWidth=2;html=1;shape=mxgraph.flowchart.annotation_1;align=left;pointerEvents=1;fontFamily=Helvetica;fontSize=11;fontColor=default;rotation=-180;" vertex="1" parent="1">
          <mxGeometry x="409.5" y="2240" width="19.5" height="90" as="geometry" />
        </mxCell>
        <mxCell id="6GgiLEc-BA4BHd9ayZXc-168" value="" style="endArrow=none;html=1;rounded=0;labelBackgroundColor=default;strokeColor=default;strokeWidth=2;align=center;verticalAlign=middle;fontFamily=Helvetica;fontSize=11;fontColor=default;shape=connector;entryX=1;entryY=0;entryDx=0;entryDy=0;entryPerimeter=0;" edge="1" parent="1" target="6GgiLEc-BA4BHd9ayZXc-167">
          <mxGeometry width="50" height="50" relative="1" as="geometry">
            <mxPoint x="250" y="2330" as="sourcePoint" />
            <mxPoint x="300" y="2280" as="targetPoint" />
          </mxGeometry>
        </mxCell>
        <mxCell id="6GgiLEc-BA4BHd9ayZXc-170" style="edgeStyle=none;shape=connector;rounded=0;orthogonalLoop=1;jettySize=auto;html=1;labelBackgroundColor=default;strokeColor=default;strokeWidth=2;align=center;verticalAlign=middle;fontFamily=Helvetica;fontSize=11;fontColor=default;endArrow=none;" edge="1" parent="1" source="6GgiLEc-BA4BHd9ayZXc-169">
          <mxGeometry relative="1" as="geometry">
            <mxPoint x="339.0000000000001" y="2330" as="targetPoint" />
          </mxGeometry>
        </mxCell>
        <mxCell id="6GgiLEc-BA4BHd9ayZXc-171" style="edgeStyle=none;shape=connector;rounded=0;orthogonalLoop=1;jettySize=auto;html=1;labelBackgroundColor=default;strokeColor=default;strokeWidth=2;align=center;verticalAlign=middle;fontFamily=Helvetica;fontSize=11;fontColor=default;endArrow=none;" edge="1" parent="1" source="6GgiLEc-BA4BHd9ayZXc-169">
          <mxGeometry relative="1" as="geometry">
            <mxPoint x="339.0000000000001" y="2430" as="targetPoint" />
          </mxGeometry>
        </mxCell>
        <mxCell id="6GgiLEc-BA4BHd9ayZXc-169" value="m[y][i] = 0;}}" style="rounded=0;whiteSpace=wrap;html=1;fontFamily=Helvetica;fontSize=11;fontColor=default;" vertex="1" parent="1">
          <mxGeometry x="301" y="2380" width="76" height="30" as="geometry" />
        </mxCell>
        <mxCell id="6GgiLEc-BA4BHd9ayZXc-173" value="" style="strokeWidth=2;html=1;shape=mxgraph.flowchart.annotation_1;align=left;pointerEvents=1;fontFamily=Helvetica;fontSize=11;fontColor=default;rotation=-180;" vertex="1" parent="1">
          <mxGeometry x="520" y="2140" width="20" height="290" as="geometry" />
        </mxCell>
        <mxCell id="6GgiLEc-BA4BHd9ayZXc-174" value="" style="endArrow=none;html=1;rounded=0;labelBackgroundColor=default;strokeColor=default;strokeWidth=2;align=center;verticalAlign=middle;fontFamily=Helvetica;fontSize=11;fontColor=default;shape=connector;entryX=1;entryY=0;entryDx=0;entryDy=0;entryPerimeter=0;" edge="1" parent="1" target="6GgiLEc-BA4BHd9ayZXc-173">
          <mxGeometry width="50" height="50" relative="1" as="geometry">
            <mxPoint x="340" y="2430" as="sourcePoint" />
            <mxPoint x="390" y="2380" as="targetPoint" />
          </mxGeometry>
        </mxCell>
        <mxCell id="6GgiLEc-BA4BHd9ayZXc-175" value="" style="strokeWidth=2;html=1;shape=mxgraph.flowchart.annotation_1;align=left;pointerEvents=1;fontFamily=Helvetica;fontSize=11;fontColor=default;" vertex="1" parent="1">
          <mxGeometry x="190" y="2070" width="192" height="380" as="geometry" />
        </mxCell>
        <mxCell id="6GgiLEc-BA4BHd9ayZXc-176" value="" style="endArrow=none;html=1;rounded=0;labelBackgroundColor=default;strokeColor=default;strokeWidth=2;align=center;verticalAlign=middle;fontFamily=Helvetica;fontSize=11;fontColor=default;shape=connector;" edge="1" parent="1">
          <mxGeometry width="50" height="50" relative="1" as="geometry">
            <mxPoint x="439" y="2450" as="sourcePoint" />
            <mxPoint x="439" y="2430" as="targetPoint" />
          </mxGeometry>
        </mxCell>
        <mxCell id="6GgiLEc-BA4BHd9ayZXc-177" value="" style="endArrow=none;html=1;rounded=0;labelBackgroundColor=default;strokeColor=default;strokeWidth=2;align=center;verticalAlign=middle;fontFamily=Helvetica;fontSize=11;fontColor=default;shape=connector;" edge="1" parent="1">
          <mxGeometry width="50" height="50" relative="1" as="geometry">
            <mxPoint x="382" y="2450" as="sourcePoint" />
            <mxPoint x="440" y="2450" as="targetPoint" />
          </mxGeometry>
        </mxCell>
        <mxCell id="6GgiLEc-BA4BHd9ayZXc-179" style="edgeStyle=none;shape=connector;rounded=0;orthogonalLoop=1;jettySize=auto;html=1;labelBackgroundColor=default;strokeColor=default;strokeWidth=2;align=center;verticalAlign=middle;fontFamily=Helvetica;fontSize=11;fontColor=default;endArrow=none;" edge="1" parent="1" source="6GgiLEc-BA4BHd9ayZXc-178">
          <mxGeometry relative="1" as="geometry">
            <mxPoint x="640" y="2070" as="targetPoint" />
          </mxGeometry>
        </mxCell>
        <mxCell id="6GgiLEc-BA4BHd9ayZXc-178" value="return 0;}" style="ellipse;whiteSpace=wrap;html=1;fontFamily=Helvetica;fontSize=11;fontColor=default;" vertex="1" parent="1">
          <mxGeometry x="590" y="2170" width="100" height="30" as="geometry" />
        </mxCell>
        <mxCell id="6GgiLEc-BA4BHd9ayZXc-181" value="int main()&lt;br&gt;{" style="ellipse;whiteSpace=wrap;html=1;fontFamily=Helvetica;fontSize=11;fontColor=default;" vertex="1" parent="1">
          <mxGeometry x="300" y="2500" width="80" height="40" as="geometry" />
        </mxCell>
        <mxCell id="6GgiLEc-BA4BHd9ayZXc-183" value="" style="edgeStyle=none;shape=connector;rounded=0;orthogonalLoop=1;jettySize=auto;html=1;labelBackgroundColor=default;strokeColor=default;strokeWidth=2;align=center;verticalAlign=middle;fontFamily=Helvetica;fontSize=11;fontColor=default;endArrow=none;" edge="1" parent="1" source="6GgiLEc-BA4BHd9ayZXc-182" target="6GgiLEc-BA4BHd9ayZXc-181">
          <mxGeometry relative="1" as="geometry" />
        </mxCell>
        <mxCell id="6GgiLEc-BA4BHd9ayZXc-182" value="setlocale(LC_ALL, &quot;Russian&quot;);" style="rounded=0;whiteSpace=wrap;html=1;fontFamily=Helvetica;fontSize=11;fontColor=default;" vertex="1" parent="1">
          <mxGeometry x="280" y="2570" width="120" height="60" as="geometry" />
        </mxCell>
        <mxCell id="6GgiLEc-BA4BHd9ayZXc-185" value="" style="edgeStyle=none;shape=connector;rounded=0;orthogonalLoop=1;jettySize=auto;html=1;labelBackgroundColor=default;strokeColor=default;strokeWidth=2;align=center;verticalAlign=middle;fontFamily=Helvetica;fontSize=11;fontColor=default;endArrow=none;" edge="1" parent="1" source="6GgiLEc-BA4BHd9ayZXc-184" target="6GgiLEc-BA4BHd9ayZXc-182">
          <mxGeometry relative="1" as="geometry" />
        </mxCell>
        <mxCell id="6GgiLEc-BA4BHd9ayZXc-184" value="z=1;" style="rounded=0;whiteSpace=wrap;html=1;fontFamily=Helvetica;fontSize=11;fontColor=default;" vertex="1" parent="1">
          <mxGeometry x="310" y="2650" width="60" height="20" as="geometry" />
        </mxCell>
        <mxCell id="6GgiLEc-BA4BHd9ayZXc-188" style="edgeStyle=none;shape=connector;rounded=0;orthogonalLoop=1;jettySize=auto;html=1;entryX=0.5;entryY=1;entryDx=0;entryDy=0;labelBackgroundColor=default;strokeColor=default;strokeWidth=2;align=center;verticalAlign=middle;fontFamily=Helvetica;fontSize=11;fontColor=default;endArrow=none;" edge="1" parent="1" source="6GgiLEc-BA4BHd9ayZXc-186" target="6GgiLEc-BA4BHd9ayZXc-184">
          <mxGeometry relative="1" as="geometry" />
        </mxCell>
        <mxCell id="6GgiLEc-BA4BHd9ayZXc-186" value="placequeen(0)" style="shape=process;whiteSpace=wrap;html=1;backgroundOutline=1;fontFamily=Helvetica;fontSize=11;fontColor=default;" vertex="1" parent="1">
          <mxGeometry x="290" y="2690" width="100" height="30" as="geometry" />
        </mxCell>
        <mxCell id="6GgiLEc-BA4BHd9ayZXc-190" value="" style="edgeStyle=none;shape=connector;rounded=0;orthogonalLoop=1;jettySize=auto;html=1;labelBackgroundColor=default;strokeColor=default;strokeWidth=2;align=center;verticalAlign=middle;fontFamily=Helvetica;fontSize=11;fontColor=default;endArrow=none;" edge="1" parent="1" source="6GgiLEc-BA4BHd9ayZXc-189" target="6GgiLEc-BA4BHd9ayZXc-186">
          <mxGeometry relative="1" as="geometry" />
        </mxCell>
        <mxCell id="6GgiLEc-BA4BHd9ayZXc-189" value="cout&amp;lt;&amp;lt;&quot;Результат&quot;&amp;lt;&amp;lt;endl;" style="shape=parallelogram;perimeter=parallelogramPerimeter;whiteSpace=wrap;html=1;fixedSize=1;fontFamily=Helvetica;fontSize=11;fontColor=default;" vertex="1" parent="1">
          <mxGeometry x="253.5" y="2750" width="171" height="30" as="geometry" />
        </mxCell>
        <mxCell id="6GgiLEc-BA4BHd9ayZXc-192" value="" style="edgeStyle=none;shape=connector;rounded=0;orthogonalLoop=1;jettySize=auto;html=1;labelBackgroundColor=default;strokeColor=default;strokeWidth=2;align=center;verticalAlign=middle;fontFamily=Helvetica;fontSize=11;fontColor=default;endArrow=none;" edge="1" parent="1" source="6GgiLEc-BA4BHd9ayZXc-191" target="6GgiLEc-BA4BHd9ayZXc-189">
          <mxGeometry relative="1" as="geometry" />
        </mxCell>
        <mxCell id="6GgiLEc-BA4BHd9ayZXc-191" value="output();" style="shape=process;whiteSpace=wrap;html=1;backgroundOutline=1;fontFamily=Helvetica;fontSize=11;fontColor=default;" vertex="1" parent="1">
          <mxGeometry x="304" y="2800" width="70" height="30" as="geometry" />
        </mxCell>
        <mxCell id="6GgiLEc-BA4BHd9ayZXc-194" value="" style="edgeStyle=none;shape=connector;rounded=0;orthogonalLoop=1;jettySize=auto;html=1;labelBackgroundColor=default;strokeColor=default;strokeWidth=2;align=center;verticalAlign=middle;fontFamily=Helvetica;fontSize=11;fontColor=default;endArrow=none;" edge="1" parent="1" source="6GgiLEc-BA4BHd9ayZXc-193" target="6GgiLEc-BA4BHd9ayZXc-191">
          <mxGeometry relative="1" as="geometry" />
        </mxCell>
        <mxCell id="6GgiLEc-BA4BHd9ayZXc-193" value="return 0;}" style="ellipse;whiteSpace=wrap;html=1;fontFamily=Helvetica;fontSize=11;fontColor=default;" vertex="1" parent="1">
          <mxGeometry x="299.5" y="2860" width="80" height="30" as="geometry" />
        </mxCell>
      </root>
    </mxGraphModel>
  </diagram>
</mxfile>
